<svg width="29" height="29" fill="none" xmlns="http://www.w3.org/2000/svg"><g clip-path="url(#a)"><path fill-rule="evenodd" clip-rule="evenodd" d="M14.5 0a14.29 14.29 0 0 0-9.397 3.544C2.481 5.83.738 9 .186 12.486a15.182 15.182 0 0 0 1.907 10.077c1.782 3.02 4.554 5.293 7.82 6.409.726.13.994-.316.994-.706 0-.353-.018-1.528-.018-2.77-3.643.688-4.586-.91-4.876-1.746a5.401 5.401 0 0 0-1.49-2.1c-.508-.279-1.233-.967-.018-.985.464.051.91.217 1.297.483.389.266.708.625.932 1.045.199.365.465.686.785.946.32.26.686.451 1.078.565a3.023 3.023 0 0 0 2.36-.285 3.16 3.16 0 0 1 .924-1.988c-3.229-.372-6.598-1.653-6.598-7.34a5.87 5.87 0 0 1 1.49-3.996 5.467 5.467 0 0 1 .145-3.94s1.215-.39 3.988 1.528c2.372-.669 4.877-.669 7.25 0 2.773-1.933 3.988-1.528 3.988-1.528a5.467 5.467 0 0 1 .144 3.94 5.835 5.835 0 0 1 1.49 3.996c0 5.705-3.389 6.968-6.615 7.34.346.36.613.792.782 1.266.169.475.236.981.197 1.485 0 1.988-.018 3.586-.018 4.088 0 .39.271.855.993.706 3.263-1.123 6.03-3.4 7.807-6.422a15.19 15.19 0 0 0 1.892-10.077c-.555-3.483-2.3-6.65-4.922-8.936A14.297 14.297 0 0 0 14.5 0Z" fill="#1B1F23"/></g><defs><clipPath id="a"><path fill="#fff" d="M0 0h29v29H0z"/></clipPath></defs></svg>