<svg width="24" height="24" fill="none" xmlns="http://www.w3.org/2000/svg"><path fill-rule="evenodd" clip-rule="evenodd" d="M12.057 0a11.895 11.895 0 0 0-7.813 2.929 12.37 12.37 0 0 0-4.089 7.404 12.523 12.523 0 0 0 1.588 8.345c1.483 2.501 3.79 4.38 6.506 5.302.607.113.821-.272.821-.597v-2.092c-3.364.748-4.074-1.654-4.074-1.654a3.286 3.286 0 0 0-1.338-1.805c-1.087-.755.088-.755.088-.755.381.055.745.197 1.064.417.32.22.585.511.778.852.163.302.384.57.649.785a2.523 2.523 0 0 0 2.856.241 2.638 2.638 0 0 1 .739-1.646c-2.677-.31-5.487-1.367-5.487-6.042a4.816 4.816 0 0 1 1.235-3.3 4.576 4.576 0 0 1 .118-3.256s1.013-.332 3.313 1.262a11.164 11.164 0 0 1 6.034 0c2.3-1.594 3.305-1.262 3.305-1.262a4.552 4.552 0 0 1 .148 3.233 4.817 4.817 0 0 1 1.235 3.3c0 4.728-2.817 5.763-5.502 6.042.288.296.51.651.652 1.042.142.391.2.809.17 1.224v3.376c0 .4.214.71.827.59a12.102 12.102 0 0 0 6.415-5.322 12.525 12.525 0 0 0 1.548-8.291 12.371 12.371 0 0 0-4.048-7.359A11.899 11.899 0 0 0 12.057 0Z" fill="url(#a)"/><defs><linearGradient id="a" x1="3.45" y1="3.45" x2="21.107" y2="22.661" gradientUnits="userSpaceOnUse"><stop stop-color="#FFAD33"/><stop offset="1" stop-color="#FF8A00"/></linearGradient></defs></svg>