<svg width="22" height="24" fill="none" xmlns="http://www.w3.org/2000/svg"><path fill-rule="evenodd" clip-rule="evenodd" d="M13.07 1.195a2.364 2.364 0 0 1-.887 3.236l-7.11 4.04a.6.6 0 0 0-.304.52v6.343a.6.6 0 0 0 .304.52l5.628 3.199a.605.605 0 0 0 .598 0l5.628-3.198a.6.6 0 0 0 .304-.521V11.39l-5.06 2.838a2.392 2.392 0 0 1-3.248-.9 2.365 2.365 0 0 1 .905-3.23l7.239-4.062C19.272 4.8 22 6.383 22 8.9v6.914a4.51 4.51 0 0 1-2.287 3.919l-6.461 3.67a4.56 4.56 0 0 1-4.504 0l-6.461-3.67A4.51 4.51 0 0 1 0 15.814V8.51c0-1.62.873-3.115 2.287-3.918l7.53-4.28a2.392 2.392 0 0 1 3.253.883Z" fill="url(#a)"/><defs><linearGradient id="a" x1="16.558" y1="3.629" x2="5.356" y2="21.34" gradientUnits="userSpaceOnUse"><stop stop-color="#FFB45B"/><stop offset="1" stop-color="#FF8A00"/></linearGradient></defs></svg>