<svg width="29" height="29" fill="none" xmlns="http://www.w3.org/2000/svg"><g clip-path="url(#a)"><path d="M.941 0a.824.824 0 0 0-.39.088.977.977 0 0 0-.329.27 1.04 1.04 0 0 0-.19.39 1.17 1.17 0 0 0-.023.45l3.947 26.628c.06.337.217.639.442.852.226.214.507.328.794.321h18.922a.817.817 0 0 0 .597-.23 1.14 1.14 0 0 0 .332-.638l3.945-26.927a1.17 1.17 0 0 0-.025-.45 1.042 1.042 0 0 0-.189-.388.977.977 0 0 0-.327-.27.824.824 0 0 0-.391-.088L.94 0Zm16.608 19.245H11.51l-1.636-9.5h9.14l-1.465 9.5Z" fill="#2684FF"/><path d="M27.732 9.744h-8.719l-1.463 9.501h-6.04L4.38 28.654c.231.22.517.34.813.34h18.927a.817.817 0 0 0 .597-.23c.17-.159.288-.385.332-.637l2.684-18.383Z" fill="url(#b)"/></g><defs><linearGradient id="b" x1="29.74" y1="12.401" x2="18.195" y2="27.155" gradientUnits="userSpaceOnUse"><stop offset=".18" stop-color="#0052CC"/><stop offset="1" stop-color="#2684FF"/></linearGradient><clipPath id="a"><path fill="#fff" d="M0 0h29v29H0z"/></clipPath></defs></svg>